<?xml version="1.0" encoding="UTF-8"?>
<svg width="28px" height="28px" viewBox="0 0 28 28" version="1.1" xmlns="http://www.w3.org/2000/svg" xmlns:xlink="http://www.w3.org/1999/xlink">
    <!-- Generator: Sketch 53.2 (72643) - https://sketchapp.com -->
    <title>collect_black_28</title>
    <desc>Created with Sketch.</desc>
    <g id="collect_black_28" stroke="none" stroke-width="1" fill="none" fill-rule="evenodd" fill-opacity="0">
        <g id="收藏" fill="#F1F1F1">
            <rect id="Path" x="0" y="0" width="28" height="28"></rect>
            <path d="M13.4980331,21.5066083 L8.36802098,24.2036153 C7.84157296,24.4803854 7.19043603,24.2779814 6.91366592,23.7515334 C6.80345462,23.541899 6.76542343,23.3017796 6.80546003,23.0683483 L7.78520516,17.3559958 C7.84512294,17.0066484 7.7293015,16.6501866 7.47548571,16.4027774 L3.32521873,12.3572669 C2.89931334,11.9421118 2.89059855,11.2602975 3.3057537,10.8343921 C3.47107066,10.6647943 3.68768556,10.5544235 3.9220639,10.5203664 L9.65759181,9.68694538 C10.0083566,9.63597627 10.3115811,9.41567079 10.4684479,9.09782398 L13.0334539,3.90055404 C13.2966779,3.36720394 13.9424288,3.14822348 14.4757789,3.41144749 C14.6881617,3.51626467 14.8600683,3.68817123 14.9648855,3.90055404 L17.5298915,9.09782398 C17.6867583,9.41567079 17.9899828,9.63597627 18.3407476,9.68694538 L24.0762755,10.5203664 C24.6648623,10.605893 25.072673,11.15237 24.9871464,11.7409567 C24.9530892,11.9753351 24.8427184,12.19195 24.6731206,12.3572669 L20.5228537,16.4027774 C20.2690379,16.6501866 20.1532164,17.0066484 20.2131342,17.3559958 L21.1928793,23.0683483 C21.293422,23.6545568 20.899712,24.2112785 20.3135035,24.3118212 C20.0800722,24.3518578 19.8399528,24.3138266 19.6303184,24.2036153 L14.5003063,21.5066083 C14.1865727,21.3416688 13.8117667,21.3416688 13.4980331,21.5066083 Z" id="Star" stroke="#333333" stroke-width="1.5"></path>
        </g>
    </g>
</svg>