<svg width="28" height="28" viewBox="0 0 28 28" fill="none" xmlns="http://www.w3.org/2000/svg">
<path fill-rule="evenodd" clip-rule="evenodd" d="M12.702 3.84912C8.18387 4.40557 4.51689 8.01333 3.87489 12.5197C3.55682 14.7499 3.97214 16.8565 4.89858 18.6582C5.05213 18.9572 5.11282 19.2943 5.0492 19.6248L4.36626 23.1704C4.26828 23.6786 4.71431 24.1247 5.2225 24.0274L9.08106 23.283C9.3772 23.226 9.67991 23.2692 9.95631 23.3891C11.7207 24.1532 13.7352 24.4479 15.8564 24.0632C20.2356 23.2684 23.662 19.6168 24.1629 15.1952C24.9123 8.57343 19.3347 3.03383 12.702 3.84912Z" stroke="#333333" stroke-width="1.5" stroke-linejoin="round"/>
<path fill-rule="evenodd" clip-rule="evenodd" d="M10.7688 15.0769C11.3636 15.0769 11.8457 14.5948 11.8457 14C11.8457 13.4053 11.3636 12.9231 10.7688 12.9231C10.174 12.9231 9.69189 13.4053 9.69189 14C9.69189 14.5948 10.174 15.0769 10.7688 15.0769Z" fill="#333333"/>
<path fill-rule="evenodd" clip-rule="evenodd" d="M17.2307 15.0769C17.8255 15.0769 18.3077 14.5948 18.3077 14C18.3077 13.4053 17.8255 12.9231 17.2307 12.9231C16.636 12.9231 16.1538 13.4053 16.1538 14C16.1538 14.5948 16.636 15.0769 17.2307 15.0769Z" fill="#333333"/>
</svg>
