<?xml version="1.0" encoding="UTF-8"?>
<svg width="28px" height="28px" viewBox="0 0 28 28" version="1.1" xmlns="http://www.w3.org/2000/svg" xmlns:xlink="http://www.w3.org/1999/xlink">
    <!-- Generator: Sketch 53.2 (72643) - https://sketchapp.com -->
    <title>share_black_28</title>
    <desc>Created with Sketch.</desc>
    <g id="share_black_28" stroke="none" stroke-width="1" fill="none" fill-rule="evenodd">
        <g id="icon_share_black_26">
            <rect id="base" fill-opacity="0" fill="#F1F1F1" x="0" y="0" width="28" height="28"></rect>
            <g id="Group-26" transform="translate(4.500000, 4.000000)">
                <path d="M18,14.3571429 L18,15.3857143 C18,17.6579715 16.1579715,19.5 13.8857143,19.5 L3.85714286,19.5 C1.5848856,19.5 0,17.6579715 0,15.3857143 L0,5.35714286 C-4.75066415e-16,3.0848856 1.5848856,1.5 3.85714286,1.5 L4.88571429,1.5" id="Rectangle-6" stroke="#333333" stroke-width="1.5" fill-opacity="0" fill="#F1F1F1" stroke-linecap="round"></path>
                <path d="M17.3567289,3.27464196 L8.36568542,12.2656854 C8.05326599,12.5781049 7.54673401,12.5781049 7.23431458,12.2656854 C6.92189514,11.953266 6.92189514,11.446734 7.23431458,11.1343146 L16.225358,2.14327111 C16.1087154,2.11498858 15.9868773,2.1 15.8615385,2.1 L10.2,2.1 C9.7581722,2.1 9.4,1.7418278 9.4,1.3 C9.4,0.8581722 9.7581722,0.5 10.2,0.5 L16.9487179,0.5 C18.0816097,0.5 19,1.41839026 19,2.55128205 L19,9.3 C19,9.7418278 18.6418278,10.1 18.2,10.1 C17.7581722,10.1 17.4,9.7418278 17.4,9.3 L17.4,3.63846154 C17.4,3.5131227 17.3850114,3.39128464 17.3567289,3.27464196 Z" id="Combined-Shape" fill="#333333"></path>
            </g>
        </g>
    </g>
</svg>