<?xml version="1.0" encoding="UTF-8"?>
<svg width="7px" height="11px" viewBox="0 0 7 11" version="1.1" xmlns="http://www.w3.org/2000/svg" xmlns:xlink="http://www.w3.org/1999/xlink">
    <!-- Generator: Sketch 46.2 (44496) - http://www.bohemiancoding.com/sketch -->
    <title>Fill 1</title>
    <desc>Created with Sketch.</desc>
    <defs></defs>
    <g id="Symbols" stroke="none" stroke-width="1" fill="none" fill-rule="evenodd">
        <g id="&gt;/arrow;15px" transform="translate(-7.000000, -2.000000)" fill="#CCCCCC">
            <g id="Fill-1">
                <path d="M7.70855202,7.76832356 C7.56381599,7.62358753 7.56381599,7.38894721 7.70855202,7.24421118 L12.8074097,2.14485952 C13.0005557,1.95171349 13.3132448,1.95171349 13.5063909,2.14485952 L13.8551405,2.49410312 C14.0482865,2.68724915 14.0482865,2.99944427 13.8551405,3.19259031 L9.62865082,7.41907996 C9.58122877,7.46699599 9.58122877,7.54553875 9.62865082,7.59345477 L13.8551405,11.8199444 C14.0482865,12.0130905 14.0482865,12.3252856 13.8551405,12.5184316 L13.5063909,12.8676752 C13.3132448,13.0608212 13.0005557,13.0608212 12.8074097,12.8676752 L7.70855202,7.76832356 Z" transform="translate(10.800000, 7.506267) scale(-1, 1) translate(-10.800000, -7.506267) "></path>
            </g>
        </g>
    </g>
</svg>