<?xml version="1.0" encoding="UTF-8"?>
<svg width="12px" height="12px" viewBox="0 0 12 12" version="1.1" xmlns="http://www.w3.org/2000/svg" xmlns:xlink="http://www.w3.org/1999/xlink">
    <!-- Generator: Sketch 46.2 (44496) - http://www.bohemiancoding.com/sketch -->
    <title>cancle;input;12px</title>
    <desc>Created with Sketch.</desc>
    <defs>
        <polygon id="path-1" points="11.7756522 11.7754512 11.7756522 0.000156521739 9.66034041e-05 0.000156521739 9.66034041e-05 11.7754512"></polygon>
    </defs>
    <g id="Phase-2" stroke="none" stroke-width="1" fill="none" fill-rule="evenodd">
        <g id="搜索联想" transform="translate(-291.000000, -79.000000)">
            <g id="Group-15">
                <g id="Group-14" transform="translate(15.000000, 70.000000)">
                    <g id="cancle;input;12px" transform="translate(276.000000, 9.000000)">
                        <mask id="mask-2" fill="white">
                            <use xlink:href="#path-1"></use>
                        </mask>
                        <g id="Clip-2"></g>
                        <path d="M8.86497391,8.12744348 C9.06897391,8.33144348 9.06897391,8.66118261 8.86497391,8.86518261 C8.76323478,8.96692174 8.62966957,9.01805217 8.49610435,9.01805217 C8.36253913,9.01805217 8.22897391,8.96692174 8.12723478,8.86518261 L5.88793043,6.62535652 L3.64862609,8.86518261 C3.54688696,8.96692174 3.41332174,9.01805217 3.27975652,9.01805217 C3.1461913,9.01805217 3.01262609,8.96692174 2.91088696,8.86518261 C2.70688696,8.66118261 2.70688696,8.33144348 2.91088696,8.12744348 L5.1501913,5.88761739 L2.91088696,3.64831304 C2.70688696,3.44431304 2.70688696,3.11457391 2.91088696,2.91057391 C3.11488696,2.70657391 3.44462609,2.70657391 3.64862609,2.91057391 L5.88793043,5.14987826 L8.12723478,2.91057391 C8.33123478,2.70657391 8.66097391,2.70657391 8.86497391,2.91057391 C9.06897391,3.11457391 9.06897391,3.44431304 8.86497391,3.64831304 L6.62566957,5.88761739 L8.86497391,8.12744348 Z M5.89732174,-0.000208695652 C2.64532174,-0.00542608696 0.00532173913,2.62674783 0.000104347826,5.87822609 C-0.00511304348,9.13022609 2.62653913,11.7702261 5.87853913,11.7754435 C9.13053913,11.7806609 11.7705391,9.1490087 11.7757565,5.89753043 C11.7809739,2.6450087 9.14932174,0.00500869565 5.89732174,-0.000208695652 L5.89732174,-0.000208695652 Z" id="Fill-1" fill="#999999" mask="url(#mask-2)"></path>
                    </g>
                </g>
            </g>
        </g>
    </g>
</svg>