<?xml version="1.0" encoding="UTF-8"?>
<svg width="65px" height="64px" viewBox="0 0 65 64" version="1.1" xmlns="http://www.w3.org/2000/svg" xmlns:xlink="http://www.w3.org/1999/xlink">
    <!-- Generator: Sketch 47.1 (45422) - http://www.bohemiancoding.com/sketch -->
    <title>icon-like-bold</title>
    <desc>Created with Sketch.</desc>
    <defs></defs>
    <g id="Page-1" stroke="none" stroke-width="1" fill="none" fill-rule="evenodd">
        <g id="icon-like-bold">
            <path d="M50.5,60 C56.3036545,60 61,55.5182998 61,50 C61,44.4817002 56.3036545,40 50.5,40 C44.6963457,40 40,44.4817002 40,50 C40,55.5182998 44.6963457,60 50.5,60 Z" id="Combined-Shape" stroke="#FFFFFF" stroke-width="1.54285714"></path>
            <polygon id="Star" fill="#FFFFFF" fill-rule="nonzero" points="50.5 55.3824153 45.8647452 57 46 52.1739008 43 48.3475243 47.718847 46.9824154 50.5 43 53.281153 46.9824154 58 48.3475243 55 52.1739008 55.1352551 57"></polygon>
            <path d="M50.5416667,63.5 C42.7751624,63.5 36.4791667,57.4558441 36.4791667,50 C36.4791667,42.5441559 42.7751624,36.5 50.5416667,36.5 C58.308171,36.5 64.6041667,42.5441559 64.6041667,50 C64.6041667,57.4558441 58.308171,63.5 50.5416667,63.5 Z M50.4854167,60.125 C56.3568939,60.125 61.1166667,55.5918831 61.1166667,50 C61.1166667,44.4081169 56.3568939,39.875 50.4854167,39.875 C44.6139394,39.875 39.8541667,44.4081169 39.8541667,50 C39.8541667,55.5918831 44.6139394,60.125 50.4854167,60.125 Z" id="Oval" fill="#FFFFFF"></path>
            <path d="M52.5982147,35.6066195 L54.3615922,29.0308238 C54.4726605,28.6437358 54.535309,28.2443722 54.5467274,27.9281592 C54.5470152,25.7642468 52.8115011,24.0000582 50.6921691,23.9651385 L36.3647313,23.9651385 L36.3647313,21.2378915 L36.3649176,9.02468606 C36.3758588,8.08925229 36.0146986,7.18778836 35.3608953,6.51863586 C34.70708,5.84947111 33.8141777,5.46745143 32.8455282,5.45605294 C31.1575573,5.41603111 29.6879903,6.60193647 29.3764543,8.22883079 C27.8015029,17.0131084 23.3374748,24.0500366 17.7278484,26.048516 L17.7278484,54.5457168 L36.0201612,54.5457168 C36.5928391,56.5703135 37.5799849,58.4208914 38.8841457,60 L12.2731997,60 L8.00060341,59.9997545 C5.8498613,59.9708883 3.79869456,59.0887663 2.29843413,57.5474824 C0.798161746,56.006186 -0.0282699557,53.932003 0.000738665626,51.8184349 L0.000812484283,29.4757964 C-0.0319702589,25.0203164 3.47732375,21.3429579 8.03720594,21.1650793 L14.4736327,21.1650793 C18.2553509,21.1650793 22.5473907,15.4095243 24.013219,7.23493558 C24.8316566,2.95831152 28.6216503,-0.100122367 32.9417027,0.002507424 C35.323897,0.0300448807 37.5975687,1.00281344 39.2624555,2.70678656 C40.9273546,4.41077197 41.847055,6.70636506 41.81938,9.05658118 L41.81938,18.5107294 L50.7366355,18.511007 C55.8781382,18.5948427 60.0020599,22.7869007 59.9999992,28.0151733 C59.9728796,28.8682757 59.8400963,29.7147253 59.617411,30.4893085 L57.7754167,37.3587624 C56.2028453,36.4779688 54.4553961,35.8722067 52.5982147,35.6066195 Z M8.14478718,26.6174507 C6.6345369,26.6770682 5.44419408,27.9244182 5.45538742,29.4557308 L5.45513504,51.8555361 C5.44555698,52.559518 5.71607606,53.2384682 6.2071743,53.7429953 C6.69828446,54.2475345 7.36974537,54.5363018 8.03720594,54.5455059 L12.2731997,54.5455059 L12.2731997,26.6188353 L8.14478718,26.6174507 Z" id="Combined-Shape" fill="#FFFFFF" fill-rule="nonzero"></path>
        </g>
    </g>
</svg>