<?xml version="1.0" encoding="UTF-8" standalone="no"?>
<svg viewBox="0 0 24 24" version="1.1" xmlns="http://www.w3.org/2000/svg" xmlns:xlink="http://www.w3.org/1999/xlink">
    <!-- Generator: Sketch 42 (36781) - http://www.bohemiancoding.com/sketch -->
    <title>selected</title>
    <desc>Created with Sketch.</desc>
    <defs></defs>
    <g id="Page-1" stroke="none" stroke-width="1" fill="none" fill-rule="evenodd">
        <g id="угдтЈи-SVG" transform="translate(-64.000000, -138.000000)">
            <g id="Oval-187-Copy-31" transform="translate(64.000000, 138.000000)">
                <path d="M12,24 C18.627417,24 24,18.627417 24,12 C24,5.372583 18.627417,0 12,0 C5.372583,0 0,5.372583 0,12 C0,18.627417 5.372583,24 12,24 Z" id="Oval-187" fill="#FF2741"></path>
                <path d="M10.3562997,14.5761583 L7.86589218,11.6082062 C7.50268634,11.1753543 6.87825186,11.1277036 6.45517719,11.4827054 C6.02915293,11.8401822 5.97776159,12.4694674 6.3338033,12.8937814 L9.54397547,16.7195156 C9.79123264,17.0141853 10.1595532,17.1303378 10.5029943,17.0624676 C10.7570493,17.0380837 11.0018713,16.9182436 11.1764663,16.7101694 L17.6011628,9.05351432 C17.9570426,8.62939326 17.90552,8.00026441 17.4794958,7.64278761 C17.0564211,7.28778582 16.4204938,7.34913315 16.0690739,7.7679391 L10.3562997,14.5761583 Z" id="Combined-Shape" fill="#FFFFFF"></path>
            </g>
        </g>
    </g>
</svg>