<?xml version="1.0" encoding="UTF-8"?>
<svg viewBox="0 0 17 15" version="1.1" xmlns="http://www.w3.org/2000/svg" xmlns:xlink="http://www.w3.org/1999/xlink">
    <!-- Generator: Sketch 44.1 (41455) - http://www.bohemiancoding.com/sketch -->
    <title>icon_shoppingcart_grey_20</title>
    <desc>Created with Sketch.</desc>
    <defs></defs>
    <g id="Page-1" stroke="none" stroke-width="1" fill="none" fill-rule="evenodd">
        <g id="Icon-set" transform="translate(-161.000000, -803.000000)">
            <g id="商详" transform="translate(100.000000, 723.000000)">
                <g id="icon_shoppingcart_grey_20" transform="translate(60.000000, 78.000000)">
                    <g>
                        <rect id="Rectangle-12" x="0" y="0" width="20" height="20"></rect>
                        <g id="Group-30" transform="translate(1.200000, 3.350000)">
                            <path d="M13.3141176,13.2974118 C12.7621035,13.2974118 12.3141176,12.8494259 12.3141176,12.2974118 C12.3141176,11.7449549 12.7621035,11.2974118 13.3141176,11.2974118 C13.8665745,11.2974118 14.3141176,11.7449549 14.3141176,12.2974118 C14.3141176,12.8494259 13.8665745,13.2974118 13.3141176,13.2974118 Z" id="Fill-1" fill="#CCCCCC"></path>
                            <path d="M7.19505882,12.2776471 C7.19505882,12.8296612 6.74707299,13.2776471 6.19505882,13.2776471 C5.64260198,13.2776471 5.19505882,12.8296612 5.19505882,12.2776471 C5.19505882,11.7256329 5.64260198,11.2776471 6.19505882,11.2776471 C6.74707299,11.2776471 7.19505882,11.7256329 7.19505882,12.2776471" id="Fill-4" fill="#CCCCCC"></path>
                            <path d="M12.9020706,10.2515765 L6.63854118,10.2515765 C5.41736471,10.2515765 4.36371765,9.39322353 4.11712941,8.19698824 L2.80748235,1.85016471 L13.3514824,1.85016471 C14.9133647,1.85016471 16.1157176,3.2304 15.9020706,4.77769412 L15.4526588,8.02898824 C15.2766588,9.30287059 14.1877176,10.2515765 12.9020706,10.2515765 Z" id="Stroke-6" stroke="#CCCCCC"></path>
                            <path d="M2.80738824,1.85035294 L2.50291765,0.750588235 C2.41256471,0.313411765 2.02762353,0 1.58150588,0 L-0.00014117647,0" id="Stroke-8" stroke="#CCCCCC" stroke-linecap="round"></path>
                        </g>
                    </g>
                </g>
            </g>
        </g>
    </g>
</svg>
